<svg id="Layer_1" data-name="Layer 1" xmlns="http://www.w3.org/2000/svg" viewBox="0 0 235.55 655.25"><defs><style>.cls-1{fill:#006c9b;}</style></defs><title>BLB_Icon_Blue</title><path class="cls-1" d="M234.87,4.61A35.07,35.07,0,0,0,235.55,0c-1.07,1.05-2.21,2-3.2,3.14-19.82,22.19-35.56,47.26-50.27,72.91a870.56,870.56,0,0,0-64.5,140.43q-4.14,11.57-7.92,23.23c-3.48,10.7-6.72,21.45-9.63,32.29q-4.52,16.78-7.87,33.86c-1.33,6.75-2.56,13.51-3.57,20.34-.1.67-.18,1.36-.28,2q-.54,3.87-1,7.81c-.93,7.76-1.58,15.67-1.89,23.64-1.14,29.57,2.62,59.93,16.47,85.75,1.53,2.85,1.53,2.85,4.84,8.58,1.39,16,.56,23.26-.46,35.13a502.68,502.68,0,0,1-15.33,86.52c-.43-2.59-.9-5.16-1.4-7.68A208.41,208.41,0,0,0,83,542.92a217.46,217.46,0,0,0-14.14-33.46A526.22,526.22,0,0,1,19.55,361.19a12.08,12.08,0,0,1-.16-1.5,3.56,3.56,0,0,1,.85-2.9c.22,1,.45,1.93.68,2.9,5.93,25.46,12.45,50.82,21,75.53q7,20.36,15.84,40,4.44,9.93,9.33,19.65,2.43,4.88,5,9.67c.7,1.32,3.22,7.94,5,7.82,1.16-.09,3-4.28,3.45-5.26,4.5-11.24,5-23,3.1-34.72-4.34-27.13-14.75-52.36-25.83-77.18-5.27-11.79-10.39-23.63-15.24-35.56q-4.78-11.74-9.11-23.64c-.94-2.6-1.89-5.2-2.79-7.81q-3.84-11.1-7.14-22.38c-1.59-5.48-3.12-11-4.49-16.54-1.41-5.73-2.58-11.52-3.69-17.32-1.94-10.13-3.62-20.33-5.57-30.46a11.06,11.06,0,0,0-.57-1.83c-.1-.26-.2-.52-.29-.78-.09.26-.18.52-.28.78-.2.57-.41,1.14-.57,1.72A201.17,201.17,0,0,0,2.46,272c-.77,7-1.29,14.05-1.69,21.1-.24,4.25-.41,8.51-.54,12.76q-.33,11.2-.18,22.38c0,2.6.11,5.21.19,7.81q.35,11.82,1.23,23.64.93,12.21,2.4,24.39c2.7,22.22,6.69,44.16,13.68,65.44C24.81,471.59,36.48,495,56,508.81A22.1,22.1,0,0,0,63.35,512Q65,515,66.58,518.14A238.55,238.55,0,0,1,84.33,565.6c1.19,4.56,2.14,9.16,3.14,13.76.37,1.72.69,3.45,1,5.19q-1.47,5.13-3,10.24c-2.26,7.34-4.79,14.58-7.34,21.81-6.43-10.06-16.26-21.48-23.47-29.4,11-6.68,6.4-26.55,5.53-29.85a6.42,6.42,0,0,1,.94.14,1,1,0,0,0,.68-.08,1,1,0,0,0,.55-.68,1,1,0,0,0-.76-1.23,12.34,12.34,0,0,0-4.06-.07A44.12,44.12,0,0,0,56.06,544a1.64,1.64,0,0,0,.34-1.89,1.67,1.67,0,0,0-3,1.45,1.68,1.68,0,0,0,1.28.9A42.45,42.45,0,0,1,56,555.66q-1.18.23-2.4.54a39.61,39.61,0,0,0-3.7-10.71,1.58,1.58,0,0,0,.13-1.56,1.59,1.59,0,1,0-1.39,2.28,37.9,37.9,0,0,1,3.56,10.38c-.89.26-1.77.55-2.64.85-1.1-1.64-3.56-5.6-4.06-9.15A1.47,1.47,0,0,0,44,545.84a1.49,1.49,0,0,0-.69,2,1.52,1.52,0,0,0,.86.76c.55,3.65,2.84,7.5,4.07,9.37-1.3.48-2.53,1-3.59,1.43-1.09-1.72-3.9-6.51-4.5-10.74a1.59,1.59,0,0,0,.44-1.91,1.6,1.6,0,1,0-2.88,1.39,1.56,1.56,0,0,0,1,.83c.65,4.41,3.36,9.09,4.57,11-1.49.66-2.46,1.14-2.61,1.21s-.79.38-1.78.89a71.47,71.47,0,0,0-3.9-10,1.59,1.59,0,1,0-1.31.62,70,70,0,0,1,3.91,10c-1,.53-2.16,1.18-3.4,1.92l-4.24-8.74a1.56,1.56,0,0,0,.16-1.61,1.57,1.57,0,1,0-2.83,1.38,1.55,1.55,0,0,0,1.36.86l4.3,8.86c-1,.62-2,1.29-3,2A74.42,74.42,0,0,1,24.37,558a1.62,1.62,0,1,0-2.67-.36,1.58,1.58,0,0,0,1.31.87,74.89,74.89,0,0,0,5.74,9.72c-.77.58-1.5,1.18-2.18,1.78-1.3-1.15-4.9-4.54-6.33-8.06a1.63,1.63,0,1,0-1.36.5c1.52,3.78,5.17,7.27,6.64,8.57a11.55,11.55,0,0,0-2.28,3,1,1,0,0,0,.49,1.36,1,1,0,0,0,1.35-.49,6.53,6.53,0,0,1,.48-.83c2,2.69,14.44,18.23,26.38,14.29,8.29,12,20.44,26.26,24.38,33.14l-.57,1.61c-3.4,9.66-7.66,19-11,28.66-.93,2.68,2.94,4.81,4.52,2.32C78.86,639,85.88,621.6,92.17,604.9q4.78-12.69,8.76-25.64a.42.42,0,0,0,.28,0c10.36-6.91,22.78-19.09,31.06-27.73,7.41,10.57,26.91,4.59,30.15,3.5a5.65,5.65,0,0,1-.07.95,1,1,0,0,0,.12.67,1,1,0,0,0,1.89-.34,11.91,11.91,0,0,0-.21-4,45.1,45.1,0,0,0,11.36-2.2,1.66,1.66,0,1,0,.26-2.68,1.6,1.6,0,0,0-.8,1.33,42.48,42.48,0,0,1-11.14,2.11c-.2-.77-.44-1.55-.7-2.35A38.93,38.93,0,0,0,173.56,544a1.57,1.57,0,0,0,1.57,0,1.59,1.59,0,0,0-1.58-2.77,1.57,1.57,0,0,0-.78,1.53,38.07,38.07,0,0,1-10.12,4.26c-.32-.87-.67-1.73-1-2.57,1.56-1.22,5.33-3.93,8.85-4.68a1.47,1.47,0,1,0,.31-2.3,1.53,1.53,0,0,0-.69.9c-3.61.8-7.3,3.34-9.07,4.7-.57-1.26-1.15-2.46-1.67-3.49,1.64-1.19,6.24-4.33,10.41-5.21a1.58,1.58,0,0,0,1.93.31,1.6,1.6,0,1,0-1.59-2.78,1.58,1.58,0,0,0-.75,1.07c-4.34.94-8.81,3.94-10.68,5.3-.75-1.43-1.3-2.37-1.38-2.51s-.43-.76-1-1.72a71.55,71.55,0,0,0,9.68-4.56,1.59,1.59,0,1,0-.71-1.27,71.8,71.8,0,0,1-9.74,4.58c-.6-1-1.32-2.08-2.15-3.27l8.43-4.82a1.57,1.57,0,1,0-.72-1.26l-8.55,4.89c-.68-1-1.41-1.92-2.17-2.85a73.25,73.25,0,0,1,9-6.18,1.58,1.58,0,0,0,1.78.12,1.61,1.61,0,1,0-1.61-2.8,1.58,1.58,0,0,0-.78,1.37,74.49,74.49,0,0,0-9.31,6.38c-.63-.73-1.27-1.41-1.93-2,1.07-1.37,4.22-5.19,7.62-6.87a1.59,1.59,0,1,0,.18-2.64,1.56,1.56,0,0,0-.77,1.32c-3.66,1.78-6.9,5.65-8.1,7.21a11.58,11.58,0,0,0-3.19-2.07,1,1,0,0,0-1.32.58,1,1,0,0,0,.58,1.32,6.17,6.17,0,0,1,.86.42c-2.55,2.21-17.22,15.64-12.48,27.28-9.74,7.74-20.9,18.39-28.06,24.1q3-10.28,5.51-20.71A460.36,460.36,0,0,0,120.8,463l.09.06c0-.74,0-1.48,0-2.21q.31-8.48.31-16.95,0-6.5-.13-13,.83-35.68,4.51-71.21,1.23-11.83,2.76-23.64c.34-2.61.68-5.21,1.05-7.81q1.56-11.22,3.41-22.38,2.81-17,6.26-33.86,3.32-16.2,7.23-32.29,5.65-23.18,12.53-46c.75-2.52,1.86-5.39,4.38-6.16-4.2,17.35-8.24,34.75-12,52.2q-3.45,16.11-6.52,32.29-3.17,16.89-5.8,33.86-1.31,8.56-2.45,17.15c-.23,1.74-.41,3.48-.63,5.23q-.5,3.9-1,7.81c-.92,7.87-1.76,15.75-2.46,23.64q-1.57,18-2.38,36.15-.8,18.45-.79,36.93,0,9.23.22,18.46c.06,2.54-1.15,14.5,1.6,15.64,1.81.74,7.88-4.17,9.22-5.36,15.39-13.64,25-31.05,31.12-50.34a357.65,357.65,0,0,0,11.92-51.48c1.25-7.85,2.29-15.74,3.17-23.64.29-2.6.56-5.21.82-7.81q1.1-11.17,1.84-22.38c.72-10.47,1.26-21,1.73-31.45,0-.8.07-1.6.11-2.41q.74-16.15,1.66-32.29c3.09-52.31,8.32-104.31,20-155.56C218.68,57.34,227.39,31.12,234.87,4.61Z"/></svg>